<svg viewBox="0 0 200 200" xmlns="http://www.w3.org/2000/svg">
  <defs>
    <linearGradient id="socialGradient" x1="0%" y1="0%" x2="100%" y2="100%">
      <stop offset="0%" style="stop-color:#fd79a8;stop-opacity:1" />
      <stop offset="100%" style="stop-color:#e84393;stop-opacity:1" />
    </linearGradient>
  </defs>
  
  <!-- 外圆框 -->
  <circle cx="100" cy="100" r="90" fill="url(#socialGradient)" stroke="#fff" stroke-width="4">
    <animate attributeName="r" values="85;95;85" dur="2.5s" repeatCount="indefinite"/>
  </circle>
  
  <!-- 聊天气泡1 -->
  <ellipse cx="80" cy="85" rx="25" ry="18" fill="white">
    <animate attributeName="ry" values="15;22;15" dur="1.5s" repeatCount="indefinite"/>
  </ellipse>
  <polygon points="70,100 75,110 80,100" fill="white"/>
  
  <!-- 聊天气泡2 -->
  <ellipse cx="120" cy="115" rx="20" ry="15" fill="white" opacity="0.9">
    <animate attributeName="rx" values="18;25;18" dur="1.8s" repeatCount="indefinite"/>
  </ellipse>
  <polygon points="125,125 130,135 135,125" fill="white" opacity="0.9"/>
  
  <!-- 点点点动画 -->
  <circle cx="70" cy="85" r="2" fill="#e84393">
    <animate attributeName="opacity" values="0.3;1;0.3" dur="0.6s" repeatCount="indefinite"/>
  </circle>
  <circle cx="80" cy="85" r="2" fill="#e84393">
    <animate attributeName="opacity" values="0.3;1;0.3" dur="0.6s" begin="0.2s" repeatCount="indefinite"/>
  </circle>
  <circle cx="90" cy="85" r="2" fill="#e84393">
    <animate attributeName="opacity" values="0.3;1;0.3" dur="0.6s" begin="0.4s" repeatCount="indefinite"/>
  </circle>
  
  <!-- 心形点赞 -->
  <path d="M115 115 Q110 110 115 105 Q120 110 115 115 Q110 110 105 115 Q110 120 115 115" fill="#e84393">
    <animateTransform attributeName="transform" type="scale" values="0.8;1.3;0.8" dur="1.2s" repeatCount="indefinite"/>
  </path>
  
  <!-- 装饰星星 -->
  <path d="M140 70 L142 75 L147 75 L143 78 L145 83 L140 80 L135 83 L137 78 L133 75 L138 75 Z" fill="white" opacity="0.8">
    <animateTransform attributeName="transform" type="rotate" values="0 140 70;360 140 70" dur="3s" repeatCount="indefinite"/>
  </path>
</svg>